<svg width="187" height="17" viewBox="0 0 187 17" fill="none" xmlns="http://www.w3.org/2000/svg">
<path d="M8.05602 16.6667C3.21323 16.6667 0 13.4 0 8.31111C0 3.33333 3.16733 0 7.94126 0C11.9578 0 14.7808 2.28889 15.194 5.73333H11.866C11.5447 3.75555 10.0069 2.64444 7.94126 2.64444C5.04936 2.64444 3.32799 4.91111 3.32799 8.31111C3.32799 12.0444 5.25592 14.0222 8.05602 14.0222C10.4889 14.0222 12.0496 12.6889 12.2103 10.6889V10.4667H7.7347V7.97778H15.3087V10.0222C15.171 14 12.2791 16.6667 8.05602 16.6667Z" fill="#FBFBFB"/>
<path d="M17.3152 16.4444V0.222222H25.3712C29.4796 0.222222 31.1091 2.15556 31.1091 4.95556C31.1091 7.46667 29.273 8.66667 27.1385 8.95555V9.02222C28.5156 9.35556 29.1353 10.0889 29.7091 11.5333C30.4435 13.3556 30.5583 15.5333 31.4993 16.3111V16.4444H27.8271C27.0467 15.6889 26.8631 13.3111 26.45 11.8667C26.0368 10.3778 25.1417 10.2 23.4662 10.2H20.5284V16.4444H17.3152ZM20.5284 7.62222H25.027C26.909 7.62222 27.7812 6.55556 27.7812 5.17778C27.7812 3.66667 26.7024 2.8 25.027 2.8H20.5284V7.62222Z" fill="#FBFBFB"/>
<path d="M33.2433 16.4444V0.222222H44.6961V2.8H36.4565V6.66667H43.8928V9.24444H36.4565V13.8H44.8109V16.4444H33.2433Z" fill="#FBFBFB"/>
<path d="M47.0421 16.4444V0.222222H58.4949V2.8H50.2553V6.66667H57.6916V9.24444H50.2553V13.8H58.6097V16.4444H47.0421Z" fill="#FBFBFB"/>
<path d="M60.8408 16.4444V0.222222H64.7426L70.2969 9.17778C71.9953 11.8889 72.2019 12.7778 72.2019 12.7778H72.2707L72.2248 0.222222H75.4381V16.4444H71.5133L65.7525 7.22222C64.4442 5.13333 64.1 3.86667 64.1 3.86667H64.0541V16.4444H60.8408Z" fill="#FBFBFB"/>
<path d="M77.8553 16.4444V13.1556H81.2063V16.4444H77.8553Z" fill="#FBFBFB"/>
<path d="M83.6194 16.4444V0.222222H86.8326V6.71111H94.5214V0.222222H97.7347V16.4444H94.5214V9.28889H86.8326V16.4444H83.6194Z" fill="#FBFBFB"/>
<path d="M99.108 16.4444L105.534 0.222222H109.023L115.541 16.4444H112.099L110.744 12.7111H103.79L102.436 16.4444H99.108ZM104.708 10.1333H109.826L108.335 6.13333C107.302 3.17778 107.279 2.64444 107.279 2.64444H107.233C107.233 2.64444 107.233 3.17778 106.2 6.13333L104.708 10.1333Z" fill="#FBFBFB"/>
<path d="M116.91 16.4444V0.222222H124.966C129.074 0.222222 130.704 2.15556 130.704 4.95556C130.704 7.46667 128.868 8.66667 126.733 8.95555V9.02222C128.11 9.35556 128.73 10.0889 129.304 11.5333C130.038 13.3556 130.153 15.5333 131.094 16.3111V16.4444H127.422C126.642 15.6889 126.458 13.3111 126.045 11.8667C125.632 10.3778 124.737 10.2 123.061 10.2H120.123V16.4444H116.91ZM120.123 7.62222H124.622C126.504 7.62222 127.376 6.55556 127.376 5.17778C127.376 3.66667 126.297 2.8 124.622 2.8H120.123V7.62222Z" fill="#FBFBFB"/>
<path d="M136.245 16.4444L130.094 0.222222H133.537C133.537 0.222222 136.865 9.31111 137.209 10.4222C137.76 12.2 138.012 13.1111 138.012 13.1111H138.058C138.035 13.1111 138.288 12.2 138.861 10.4222C139.229 9.31111 142.419 0.222222 142.419 0.222222H145.747L139.825 16.4444H136.245Z" fill="#FBFBFB"/>
<path d="M147.063 16.4444V0.222222H158.516V2.8H150.276V6.66667H157.712V9.24444H150.276V13.8H158.63V16.4444H147.063Z" fill="#FBFBFB"/>
<path d="M166.607 16.6667C162.338 16.6667 159.768 14.4222 159.768 11.0889H163.44C163.394 12.9778 164.68 14.0222 166.607 14.0222C168.65 14.0222 169.614 13.2444 169.614 12.0889C169.614 10.9333 168.788 10.4444 165.85 9.66667C163.165 8.95555 160.227 8.11111 160.227 4.77778C160.227 2.13333 162.614 0 166.378 0C170.257 0 172.736 2.11111 172.736 5.08889H169.178C169.155 3.51111 168.053 2.64444 166.378 2.64444C164.748 2.64444 163.67 3.44444 163.67 4.51111C163.67 5.77778 164.565 6.17778 166.906 6.82222C170.372 7.75555 173.172 8.13333 173.172 11.7556C173.172 14.6667 170.44 16.6667 166.607 16.6667Z" fill="#FBFBFB"/>
<path d="M178.404 16.4444V2.86667H173.332V0.222222H186.667V2.86667H181.617V16.4444H178.404Z" fill="#FBFBFB"/>
</svg>
