<svg width="16" height="16" viewBox="0 0 16 16" fill="none" xmlns="http://www.w3.org/2000/svg">
<path d="M14.5411 0.113833H12.5364C11.9178 0.113833 11.4163 0.605256 11.4163 1.2115V3.17614C11.4163 3.78238 11.9178 4.27383 12.5364 4.27383H14.5411C15.1597 4.27383 15.6612 3.78238 15.6612 3.17614V1.2115C15.6612 0.605256 15.1597 0.113833 14.5411 0.113833Z" fill="#FBFBFB"/>
<path d="M3.36519 11.4769H1.20624C0.540049 11.4769 0 11.9684 0 12.5746V14.5392C0 15.1455 0.540049 15.6369 1.20624 15.6369H3.36519C4.03138 15.6369 4.57143 15.1455 4.57143 14.5392V12.5746C4.57143 11.9684 4.03138 11.4769 3.36519 11.4769Z" fill="#FBFBFB"/>
<path d="M3.1248 5.74782H1.12007C0.501486 5.74782 0 6.23924 0 6.84548V8.81012C0 9.41636 0.501599 9.90782 1.12018 9.90782H3.1248C3.74341 9.90782 4.2449 9.41636 4.2449 8.81012V6.84548C4.2449 6.23924 3.74341 5.74782 3.1248 5.74782Z" fill="#FBFBFB"/>
<path d="M8.88295 11.446H6.87822C6.25964 11.446 5.75815 11.9374 5.75815 12.5437L5.75804 14.5083C5.75804 15.1145 6.25975 15.606 6.87833 15.606H8.88295C9.50157 15.606 10.0031 15.1145 10.0031 14.5083V12.5437C10.0031 11.9374 9.50157 11.446 8.88295 11.446Z" fill="#FBFBFB"/>
<path d="M3.1248 4.52884e-05H1.12007C0.501486 4.52884e-05 0 0.491468 0 1.09771V3.06235C0 3.66859 0.501599 4.16004 1.12018 4.16004H3.1248C3.74341 4.16004 4.2449 3.66859 4.2449 3.06235V1.09771C4.2449 0.491469 3.74341 4.52884e-05 3.1248 4.52884e-05Z" fill="#FBFBFB"/>
<path d="M9.03794 5.80564H7.03321C6.41463 5.80564 5.91314 6.29707 5.91314 6.90331V8.86795C5.91314 9.47418 6.41474 9.96564 7.03332 9.96564H9.03794C9.65655 9.96564 10.158 9.47418 10.158 8.86795V6.90331C10.158 6.29707 9.65655 5.80564 9.03794 5.80564Z" fill="#FBFBFB"/>
<path d="M14.6667 11.446H12.6619C12.0434 11.446 11.5419 11.9374 11.5419 12.5437V14.5083C11.5419 15.1145 12.0435 15.606 12.662 15.606H14.6667C15.2853 15.606 15.7868 15.1145 15.7868 14.5083V12.5437C15.7868 11.9374 15.2853 11.446 14.6667 11.446Z" fill="#FBFBFB"/>
<path d="M8.7953 0.0687627H6.79056C6.17198 0.0687627 5.6705 0.560186 5.6705 1.16643V3.13107C5.6705 3.7373 6.1721 4.22876 6.79068 4.22876H8.7953C9.41391 4.22876 9.91539 3.73694 9.91539 3.1307V1.16643C9.91539 0.560186 9.41391 0.0687627 8.7953 0.0687627Z" fill="#FBFBFB"/>
<path d="M14.5219 5.91982H12.5171C11.8985 5.91982 11.3971 6.41124 11.3971 7.01748V8.98212C11.3971 9.58836 11.8987 10.0798 12.5172 10.0798H14.5219C15.1405 10.0798 15.642 9.58836 15.642 8.98212V7.01748C15.642 6.41124 15.1405 5.91982 14.5219 5.91982Z" fill="#FBFBFB"/>
</svg>
